<?xml version="1.0" standalone="no"?>
<!DOCTYPE svg PUBLIC "-//W3C//DTD SVG 20010904//EN"
 "http://www.w3.org/TR/2001/REC-SVG-20010904/DTD/svg10.dtd">
<svg version="1.0" xmlns="http://www.w3.org/2000/svg"
 width="170.000000pt" height="170.000000pt" viewBox="0 0 170.000000 170.000000"
 preserveAspectRatio="xMidYMid meet">
<metadata>
Created by potrace 1.11, written by Peter Selinger 2001-2013
</metadata>
<g transform="translate(0.000000,170.000000) scale(0.100000,-0.100000)"
fill="#000000" stroke="none">
<path d="M70 1215 l0 -315 36 0 c19 0 33 -4 29 -9 -3 -5 2 -17 11 -25 21 -22
126 -22 144 -1 12 14 33 224 24 234 -2 2 4 10 14 17 11 9 49 13 108 14 84 0
92 2 102 23 8 18 11 4 11 -70 1 -50 5 -103 10 -116 6 -14 29 -37 53 -51 24
-14 39 -26 33 -26 -5 0 4 -8 20 -17 25 -14 64 -18 216 -21 164 -3 191 -1 225
15 21 10 44 29 51 43 9 18 13 20 13 8 0 -14 8 -18 36 -18 19 0 33 -4 30 -8 -2
-4 -1 -14 4 -22 7 -12 46 -16 194 -18 215 -4 227 -1 221 57 -4 37 -2 40 23 43
21 3 17 6 -20 12 -42 7 -48 11 -48 32 0 24 -1 24 -97 24 l-98 0 3 189 c3 212
-3 254 -36 259 -17 3 -22 10 -22 33 l0 29 -95 0 c-95 0 -95 0 -95 -25 0 -21
-5 -25 -32 -25 -19 0 -41 9 -56 23 -23 21 -29 22 -242 22 -211 0 -219 -1 -249
-22 -18 -14 -45 -23 -66 -23 -31 0 -35 3 -35 25 l0 25 -210 0 -210 0 0 -315z
m355 286 c-11 -10 -136 -33 -143 -26 -2 2 18 10 44 19 55 16 113 21 99 7z
m362 -38 c-3 -10 -5 -2 -5 17 0 19 2 27 5 18 2 -10 2 -26 0 -35z m510 26 c-10
-6 -28 -8 -41 -5 -20 5 -22 2 -18 -28 2 -19 -1 -37 -7 -40 -7 -5 -11 8 -11 38
l0 46 48 0 c38 -1 43 -3 29 -11z m-470 -5 c-3 -3 -12 -4 -19 -1 -8 3 -5 6 6 6
11 1 17 -2 13 -5z m202 3 c-2 -1 -12 -9 -21 -16 -15 -12 -18 -11 -18 3 0 10 8
16 22 16 12 0 19 -1 17 -3z m-879 -11 c0 -3 -4 -8 -10 -11 -5 -3 -10 -1 -10 4
0 6 5 11 10 11 6 0 10 -2 10 -4z m404 -21 c-4 -8 -11 -12 -16 -9 -6 4 -5 10 3
15 19 12 19 11 13 -6z m614 -227 l-3 -243 -2 220 c-3 206 -4 221 -23 237 -14
11 -16 18 -8 21 38 15 38 14 36 -235z m-502 180 c4 -6 3 -8 -3 -5 -12 8 -43
-34 -43 -57 0 -8 -4 -18 -10 -21 -19 -11 -10 42 11 69 22 28 34 32 45 14z
m-518 -26 c-25 -3 -28 -8 -28 -38 0 -21 -4 -33 -10 -29 -5 3 -10 23 -10 44 l0
37 38 -5 c32 -5 34 -6 10 -9z m402 -60 l0 -79 -30 5 c-24 3 -30 9 -30 28 0 24
-1 24 -97 24 -54 0 -93 4 -88 8 6 4 16 18 23 32 12 24 17 25 103 25 76 0 92 3
100 18 6 9 12 17 14 17 3 0 5 -35 5 -78z m455 40 c-13 -14 -27 -24 -29 -21 -8
8 36 59 45 53 5 -3 -2 -17 -16 -32z m257 6 c-8 -8 -12 -55 -12 -147 0 -175
-17 -162 -22 17 -3 131 -1 139 32 141 11 1 11 -2 2 -11z m-344 -206 c-3 -137
-6 -142 -73 -142 l-40 0 3 154 c3 170 3 170 68 184 l39 8 3 -40 c2 -23 2 -96
0 -164z m112 120 c0 -4 -8 -12 -19 -19 -10 -6 -21 -25 -24 -42 -8 -40 -22 -40
-22 0 0 20 8 37 24 50 24 20 41 24 41 11z m-632 -21 c12 -1 22 -5 22 -10 0 -5
-23 -7 -53 -4 -50 5 -53 4 -64 -23 l-11 -29 -1 36 -1 35 43 -2 c23 -2 52 -3
65 -3z m271 -7 c2 -2 -8 -4 -22 -4 -25 0 -27 -3 -27 -40 0 -22 -4 -40 -10 -40
-5 0 -10 22 -10 50 l0 50 33 -7 c17 -3 34 -7 36 -9z m-119 -34 c0 -5 -5 -10
-11 -10 -5 0 -7 5 -4 10 3 6 8 10 11 10 2 0 4 -4 4 -10z m-404 -73 c-8 -7 -21
-28 -29 -47 l-15 -35 -1 29 c-1 31 35 80 51 70 5 -3 2 -11 -6 -17z m884 -26
c0 -5 -6 -11 -14 -14 -8 -3 -20 -22 -27 -41 -7 -20 -17 -36 -21 -36 -13 0 -9
40 5 55 6 8 18 21 25 30 14 17 32 20 32 6z m-342 -22 c-10 -5 -25 -9 -35 -7
-10 2 -19 -6 -24 -24 -4 -16 -3 -28 2 -28 5 0 9 -5 9 -11 0 -8 -5 -8 -15 1 -8
7 -15 28 -15 46 0 34 0 34 48 34 37 -1 43 -3 30 -11z m594 -49 c-12 -5 -28 -7
-35 -4 -9 3 -12 -6 -9 -35 2 -21 -1 -42 -7 -45 -7 -5 -11 9 -11 43 l0 51 43
-1 c35 0 38 -2 19 -9z m-1124 -57 c-29 -3 -38 -9 -38 -23 0 -10 -4 -22 -10
-25 -6 -4 -10 7 -10 24 0 30 1 31 48 29 43 -1 44 -2 10 -5z m690 -10 c-59 -3
-68 -6 -68 -23 0 -10 -4 -22 -10 -25 -6 -4 -10 7 -10 24 l0 31 78 -2 77 -2
-67 -3z m688 -4 c4 -7 -9 -10 -41 -8 -42 3 -49 0 -56 -19 -12 -31 -19 -27 -19
8 0 30 1 30 54 30 30 0 58 -5 62 -11z"/>
<path d="M90 526 l0 -285 -47 -4 -48 -3 48 -2 c48 -2 48 -3 42 -30 -6 -27 -5
-28 32 -24 21 2 35 1 31 -3 -4 -4 -3 -16 3 -27 10 -18 21 -19 162 -16 143 3
155 5 209 31 31 15 60 37 63 47 9 30 36 24 75 -16 56 -57 81 -64 246 -64 181
0 216 13 236 87 2 8 18 -1 41 -22 67 -61 81 -65 241 -65 153 0 182 5 215 41
38 41 22 169 -19 144 -6 -4 -10 7 -10 29 l0 36 -80 0 c-78 0 -80 -1 -80 -24 0
-34 -26 -56 -66 -56 l-34 0 0 150 c0 138 2 151 21 169 11 10 34 21 50 23 23 4
29 1 29 -14 0 -12 7 -18 21 -18 11 0 29 -10 38 -22 22 -27 98 -34 130 -12 38
27 23 154 -18 154 -6 0 -11 6 -11 14 0 8 -14 26 -31 40 -30 26 -32 26 -204 26
-172 0 -174 0 -204 -26 -22 -18 -31 -35 -31 -55 0 -16 -2 -29 -5 -29 -9 0 -41
36 -48 53 -3 9 -21 26 -39 37 -29 18 -51 20 -195 20 -153 0 -213 -9 -213 -32
0 -4 -34 -8 -75 -8 -56 0 -86 5 -115 20 -34 18 -59 20 -200 20 l-160 0 0 -284z
m215 248 c20 -16 20 -16 -1 -10 -15 5 -23 0 -31 -21 -11 -28 -11 -28 -12 10
-1 41 11 47 44 21z m578 -4 c9 -9 1 -10 -35 -5 -39 6 -48 4 -48 -8 0 -8 -7
-20 -15 -27 -13 -11 -15 -8 -15 17 0 16 3 33 8 37 10 11 92 0 105 -14z m507
-14 c8 -3 0 -3 -17 0 -25 4 -33 2 -33 -10 0 -8 -4 -18 -10 -21 -6 -4 -10 8
-10 30 0 35 0 35 28 22 15 -8 34 -17 42 -21z m-1237 -46 c-13 -27 -26 -50 -28
-50 -12 0 -3 49 15 78 31 50 41 29 13 -28z m459 -27 l-4 -68 -14 40 c-7 22
-14 41 -14 43 0 1 -6 2 -12 2 -7 0 -21 12 -31 25 l-18 25 48 0 48 0 -3 -67z
m953 27 c-3 -5 -15 -10 -26 -10 -12 0 -19 -7 -19 -19 0 -10 -7 -24 -15 -31
-13 -11 -15 -7 -15 29 l0 41 41 0 c24 0 38 -4 34 -10z m-537 -7 c-23 -4 -27
-10 -30 -40 -5 -56 -28 -55 -28 1 l0 46 43 -1 c28 -2 33 -3 15 -6z m217 -3
c-3 -5 -15 -10 -26 -10 -13 0 -19 -7 -19 -24 0 -31 -10 -56 -21 -56 -5 0 -9
23 -9 50 l0 50 41 0 c24 0 38 -4 34 -10z m-535 -14 c0 -2 -10 -26 -22 -53 -20
-44 -22 -46 -26 -21 -3 27 22 78 39 78 5 0 9 -2 9 -4z m-227 -13 c-16 -3 -20
-9 -16 -21 7 -18 5 -17 -16 11 -12 15 -10 17 20 16 23 -1 27 -3 12 -6z m-83
-181 c0 -87 -5 -162 -10 -173 -8 -14 -21 -19 -53 -19 l-42 0 5 157 c3 87 9
165 13 173 5 10 22 15 47 15 l40 0 0 -153z m528 -7 c3 -170 -3 -185 -69 -185
l-38 0 2 151 2 151 28 24 c21 18 33 21 50 15 21 -8 22 -13 25 -156z m-750 68
c-25 -4 -28 -8 -28 -44 0 -21 -4 -39 -10 -39 -5 0 -10 20 -10 45 l0 45 38 -1
c30 -2 32 -3 10 -6z m852 -24 c0 -5 -4 -7 -10 -4 -5 3 -12 -7 -16 -22 -10 -46
-13 -53 -24 -53 -13 0 -13 46 0 71 11 20 50 27 50 8z m-522 -16 c-6 -7 -19
-13 -30 -13 -17 0 -19 -5 -13 -32 l6 -33 -21 24 c-11 13 -20 33 -20 45 0 18 6
21 44 21 34 0 42 -3 34 -12z m222 7 c-8 -5 -23 -10 -32 -10 -11 0 -18 -8 -18
-19 0 -11 -4 -23 -10 -26 -6 -4 -10 8 -10 29 0 36 0 36 43 36 31 0 38 -3 27
-10z m520 0 c-8 -5 -23 -10 -32 -10 -14 0 -18 -8 -18 -34 0 -19 -4 -38 -10
-41 -6 -4 -10 13 -10 44 l0 51 43 0 c31 0 38 -3 27 -10z m-1085 -158 c-8 -15
-17 -36 -21 -47 -7 -18 -8 -17 -12 8 -4 30 23 81 38 72 5 -3 3 -18 -5 -33z
m349 16 c-3 -4 -14 -8 -24 -8 -14 0 -18 -5 -13 -17 5 -14 1 -13 -16 4 -11 12
-21 24 -21 25 0 2 18 4 40 4 21 1 37 -3 34 -8z m176 -27 c-10 -20 -30 -29 -30
-14 0 10 33 44 37 39 3 -2 0 -14 -7 -25z m540 19 c0 -5 -4 -10 -9 -10 -5 0
-12 -13 -16 -29 -3 -16 -14 -36 -22 -43 -15 -12 -16 -9 -10 21 7 34 32 71 49
71 4 0 8 -4 8 -10z m-216 -23 c-5 -14 -44 -41 -44 -30 0 10 32 43 41 43 5 0 6
-6 3 -13z m530 4 c3 -5 -3 -11 -14 -14 -14 -4 -20 -14 -20 -35 0 -17 -4 -34
-10 -37 -14 -9 -13 68 2 83 14 14 35 16 42 3z m-1203 -101 c-24 -21 -51 -26
-51 -11 0 5 12 14 28 19 42 16 49 13 23 -8z m537 13 c-49 -3 -58 -7 -58 -23 0
-10 -4 -22 -10 -25 -6 -4 -10 7 -10 24 l0 31 68 -2 67 -2 -57 -3z m466 1 c9
-3 16 -10 16 -16 0 -5 -5 -6 -11 -3 -6 4 -13 -2 -16 -14 -8 -31 -20 -25 -19 9
1 31 4 34 30 24z"/>
</g>
</svg>
